<svg width="531" height="178" viewBox="0 0 531 178" fill="none" xmlns="http://www.w3.org/2000/svg">
<path d="M85.5 141.9L2.4 75.6C0.799998 74 -1.76579e-06 72.2 -1.76579e-06 70.2C-1.76579e-06 68.2 0.799998 66.6 2.4 65.4L83.4 0.900014C84 0.30001 84.7 0.400009 85.5 1.20001L100.2 19.5C100.8 20.7 100.9 21.5 100.5 21.9L40.5 70.5L102.6 120.9C103.2 121.5 103.2 122.3 102.6 123.3L87.6 141.6C86.8 142.4 86.1 142.5 85.5 141.9ZM128.634 72.9V2.90001H408.384V72.9L343.134 63.9V38.4H301.134V177.9H235.884V38.4H193.884V63.9L128.634 72.9ZM444.912 141.9C444.312 142.5 443.612 142.4 442.812 141.6L427.812 123.3C427.212 122.3 427.212 121.5 427.812 120.9L489.912 70.5L429.912 21.9C429.512 21.5 429.612 20.7 430.212 19.5L444.912 1.20001C445.712 0.400009 446.412 0.30001 447.012 0.900014L528.012 65.4C529.612 66.6 530.412 68.2 530.412 70.2C530.412 72.2 529.612 74 528.012 75.6L444.912 141.9Z" fill="white"/>
</svg>
